# xmcd
#
# Track frame offsets:
#	150
#	15737
#	31987
#	48663
#	69819
#	82442
#	95188
#	113742
#	132381
#	146869
#
# Disc length: 2150 seconds
# Revision: 0
# Processed by: cddbd v1.5.2PL0 Copyright (c) Steve Scherf et al.
# Submitted via: dBpowerAMP V12.0
#
DISCID=9308640a
DTITLE=Clay Walker - Best Of Clay Walker
DYEAR=2014
DGENRE=Country
TTITLE0=She Won't Be Lonely Long
TTITLE1=Fall
TTITLE2='Fore She Was Mama
TTITLE3=This Woman And This Man
TTITLE4=What's It To You
TTITLE5=Live Until I Die
TTITLE6=I Can't Sleep
TTITLE7=Then What?
TTITLE8=Rumor Has It
TTITLE9=Dreaming With My Eyes Open
EXTD=
EXTT0=
EXTT1=
EXTT2=
EXTT3=
EXTT4=
EXTT5=
EXTT6=
EXTT7=
EXTT8=
EXTT9=
PLAYORDER=
